<mxfile host="Electron" modified="2023-06-04T21:08:53.975Z" agent="Mozilla/5.0 (X11; Linux x86_64) AppleWebKit/537.36 (KHTML, like Gecko) draw.io/21.2.8 Chrome/112.0.5615.165 Electron/24.2.0 Safari/537.36" etag="CP3redYRDwWTCVzx06uG" version="21.2.8" type="device">
  <diagram id="C5RBs43oDa-KdzZeNtuy" name="Page-1">
    <mxGraphModel dx="724" dy="2996" grid="1" gridSize="10" guides="1" tooltips="1" connect="1" arrows="1" fold="1" page="1" pageScale="1" pageWidth="827" pageHeight="1169" math="0" shadow="0">
      <root>
        <mxCell id="WIyWlLk6GJQsqaUBKTNV-0" />
        <mxCell id="WIyWlLk6GJQsqaUBKTNV-1" parent="WIyWlLk6GJQsqaUBKTNV-0" />
        <mxCell id="ciYPYZ_X3mWmXj_m5erH-2" value="" style="edgeStyle=orthogonalEdgeStyle;rounded=0;orthogonalLoop=1;jettySize=auto;html=1;" edge="1" parent="WIyWlLk6GJQsqaUBKTNV-1" source="ciYPYZ_X3mWmXj_m5erH-0" target="ciYPYZ_X3mWmXj_m5erH-1">
          <mxGeometry relative="1" as="geometry" />
        </mxCell>
        <mxCell id="ciYPYZ_X3mWmXj_m5erH-0" value="fabs(x:int) -&amp;gt; int:" style="rounded=0;whiteSpace=wrap;html=1;fillColor=#fff2cc;strokeColor=#d6b656;" vertex="1" parent="WIyWlLk6GJQsqaUBKTNV-1">
          <mxGeometry x="346" y="-1101" width="150" height="90" as="geometry" />
        </mxCell>
        <mxCell id="ciYPYZ_X3mWmXj_m5erH-4" value="True" style="edgeStyle=orthogonalEdgeStyle;rounded=0;orthogonalLoop=1;jettySize=auto;html=1;" edge="1" parent="WIyWlLk6GJQsqaUBKTNV-1" source="ciYPYZ_X3mWmXj_m5erH-1" target="ciYPYZ_X3mWmXj_m5erH-3">
          <mxGeometry relative="1" as="geometry" />
        </mxCell>
        <mxCell id="ciYPYZ_X3mWmXj_m5erH-6" value="False" style="edgeStyle=orthogonalEdgeStyle;rounded=0;orthogonalLoop=1;jettySize=auto;html=1;" edge="1" parent="WIyWlLk6GJQsqaUBKTNV-1" source="ciYPYZ_X3mWmXj_m5erH-1" target="ciYPYZ_X3mWmXj_m5erH-5">
          <mxGeometry relative="1" as="geometry" />
        </mxCell>
        <mxCell id="ciYPYZ_X3mWmXj_m5erH-1" value="if x&amp;lt;0" style="whiteSpace=wrap;html=1;rounded=0;fillColor=#d5e8d4;strokeColor=#82b366;" vertex="1" parent="WIyWlLk6GJQsqaUBKTNV-1">
          <mxGeometry x="361" y="-916" width="120" height="60" as="geometry" />
        </mxCell>
        <mxCell id="ciYPYZ_X3mWmXj_m5erH-3" value="return = -x" style="whiteSpace=wrap;html=1;rounded=0;fillColor=#d5e8d4;strokeColor=#82b366;" vertex="1" parent="WIyWlLk6GJQsqaUBKTNV-1">
          <mxGeometry x="161" y="-821" width="120" height="60" as="geometry" />
        </mxCell>
        <mxCell id="ciYPYZ_X3mWmXj_m5erH-5" value="return = x" style="whiteSpace=wrap;html=1;rounded=0;fillColor=#d5e8d4;strokeColor=#82b366;" vertex="1" parent="WIyWlLk6GJQsqaUBKTNV-1">
          <mxGeometry x="561" y="-821" width="120" height="60" as="geometry" />
        </mxCell>
        <mxCell id="ciYPYZ_X3mWmXj_m5erH-10" value="&lt;h1&gt;Ejercicio 2&lt;/h1&gt;&lt;div&gt;&lt;br&gt;&lt;/div&gt;" style="text;html=1;strokeColor=none;fillColor=none;spacing=5;spacingTop=-20;whiteSpace=wrap;overflow=hidden;rounded=0;" vertex="1" parent="WIyWlLk6GJQsqaUBKTNV-1">
          <mxGeometry x="550" y="-1085" width="190" height="120" as="geometry" />
        </mxCell>
        <mxCell id="ciYPYZ_X3mWmXj_m5erH-11" value="" style="shape=table;startSize=0;container=1;collapsible=0;childLayout=tableLayout;" vertex="1" parent="WIyWlLk6GJQsqaUBKTNV-1">
          <mxGeometry x="554" y="-1036" width="180" height="80" as="geometry" />
        </mxCell>
        <mxCell id="ciYPYZ_X3mWmXj_m5erH-12" value="" style="shape=tableRow;horizontal=0;startSize=0;swimlaneHead=0;swimlaneBody=0;strokeColor=inherit;top=0;left=0;bottom=0;right=0;collapsible=0;dropTarget=0;fillColor=none;points=[[0,0.5],[1,0.5]];portConstraint=eastwest;" vertex="1" parent="ciYPYZ_X3mWmXj_m5erH-11">
          <mxGeometry width="180" height="27" as="geometry" />
        </mxCell>
        <mxCell id="ciYPYZ_X3mWmXj_m5erH-13" value="" style="shape=partialRectangle;html=1;whiteSpace=wrap;connectable=0;strokeColor=#666666;overflow=hidden;fillColor=#f5f5f5;top=0;left=0;bottom=0;right=0;pointerEvents=1;fontColor=#333333;" vertex="1" parent="ciYPYZ_X3mWmXj_m5erH-12">
          <mxGeometry width="60" height="27" as="geometry">
            <mxRectangle width="60" height="27" as="alternateBounds" />
          </mxGeometry>
        </mxCell>
        <mxCell id="ciYPYZ_X3mWmXj_m5erH-14" value="X" style="shape=partialRectangle;html=1;whiteSpace=wrap;connectable=0;strokeColor=#82b366;overflow=hidden;fillColor=#d5e8d4;top=0;left=0;bottom=0;right=0;pointerEvents=1;" vertex="1" parent="ciYPYZ_X3mWmXj_m5erH-12">
          <mxGeometry x="60" width="60" height="27" as="geometry">
            <mxRectangle width="60" height="27" as="alternateBounds" />
          </mxGeometry>
        </mxCell>
        <mxCell id="ciYPYZ_X3mWmXj_m5erH-15" value="res" style="shape=partialRectangle;html=1;whiteSpace=wrap;connectable=0;strokeColor=#82b366;overflow=hidden;fillColor=#d5e8d4;top=0;left=0;bottom=0;right=0;pointerEvents=1;" vertex="1" parent="ciYPYZ_X3mWmXj_m5erH-12">
          <mxGeometry x="120" width="60" height="27" as="geometry">
            <mxRectangle width="60" height="27" as="alternateBounds" />
          </mxGeometry>
        </mxCell>
        <mxCell id="ciYPYZ_X3mWmXj_m5erH-16" value="" style="shape=tableRow;horizontal=0;startSize=0;swimlaneHead=0;swimlaneBody=0;strokeColor=inherit;top=0;left=0;bottom=0;right=0;collapsible=0;dropTarget=0;fillColor=none;points=[[0,0.5],[1,0.5]];portConstraint=eastwest;" vertex="1" parent="ciYPYZ_X3mWmXj_m5erH-11">
          <mxGeometry y="27" width="180" height="26" as="geometry" />
        </mxCell>
        <mxCell id="ciYPYZ_X3mWmXj_m5erH-17" value="test1" style="shape=partialRectangle;html=1;whiteSpace=wrap;connectable=0;strokeColor=#82b366;overflow=hidden;fillColor=#d5e8d4;top=0;left=0;bottom=0;right=0;pointerEvents=1;" vertex="1" parent="ciYPYZ_X3mWmXj_m5erH-16">
          <mxGeometry width="60" height="26" as="geometry">
            <mxRectangle width="60" height="26" as="alternateBounds" />
          </mxGeometry>
        </mxCell>
        <mxCell id="ciYPYZ_X3mWmXj_m5erH-18" value="-10" style="shape=partialRectangle;html=1;whiteSpace=wrap;connectable=0;strokeColor=#d6b656;overflow=hidden;fillColor=#fff2cc;top=0;left=0;bottom=0;right=0;pointerEvents=1;" vertex="1" parent="ciYPYZ_X3mWmXj_m5erH-16">
          <mxGeometry x="60" width="60" height="26" as="geometry">
            <mxRectangle width="60" height="26" as="alternateBounds" />
          </mxGeometry>
        </mxCell>
        <mxCell id="ciYPYZ_X3mWmXj_m5erH-19" value="10" style="shape=partialRectangle;html=1;whiteSpace=wrap;connectable=0;strokeColor=#d6b656;overflow=hidden;fillColor=#fff2cc;top=0;left=0;bottom=0;right=0;pointerEvents=1;" vertex="1" parent="ciYPYZ_X3mWmXj_m5erH-16">
          <mxGeometry x="120" width="60" height="26" as="geometry">
            <mxRectangle width="60" height="26" as="alternateBounds" />
          </mxGeometry>
        </mxCell>
        <mxCell id="ciYPYZ_X3mWmXj_m5erH-20" value="" style="shape=tableRow;horizontal=0;startSize=0;swimlaneHead=0;swimlaneBody=0;strokeColor=inherit;top=0;left=0;bottom=0;right=0;collapsible=0;dropTarget=0;fillColor=none;points=[[0,0.5],[1,0.5]];portConstraint=eastwest;" vertex="1" parent="ciYPYZ_X3mWmXj_m5erH-11">
          <mxGeometry y="53" width="180" height="27" as="geometry" />
        </mxCell>
        <mxCell id="ciYPYZ_X3mWmXj_m5erH-21" value="test2" style="shape=partialRectangle;html=1;whiteSpace=wrap;connectable=0;strokeColor=#82b366;overflow=hidden;fillColor=#d5e8d4;top=0;left=0;bottom=0;right=0;pointerEvents=1;" vertex="1" parent="ciYPYZ_X3mWmXj_m5erH-20">
          <mxGeometry width="60" height="27" as="geometry">
            <mxRectangle width="60" height="27" as="alternateBounds" />
          </mxGeometry>
        </mxCell>
        <mxCell id="ciYPYZ_X3mWmXj_m5erH-22" value="10" style="shape=partialRectangle;html=1;whiteSpace=wrap;connectable=0;strokeColor=#d6b656;overflow=hidden;fillColor=#fff2cc;top=0;left=0;bottom=0;right=0;pointerEvents=1;" vertex="1" parent="ciYPYZ_X3mWmXj_m5erH-20">
          <mxGeometry x="60" width="60" height="27" as="geometry">
            <mxRectangle width="60" height="27" as="alternateBounds" />
          </mxGeometry>
        </mxCell>
        <mxCell id="ciYPYZ_X3mWmXj_m5erH-23" value="10" style="shape=partialRectangle;html=1;whiteSpace=wrap;connectable=0;strokeColor=#d6b656;overflow=hidden;fillColor=#fff2cc;top=0;left=0;bottom=0;right=0;pointerEvents=1;" vertex="1" parent="ciYPYZ_X3mWmXj_m5erH-20">
          <mxGeometry x="120" width="60" height="27" as="geometry">
            <mxRectangle width="60" height="27" as="alternateBounds" />
          </mxGeometry>
        </mxCell>
      </root>
    </mxGraphModel>
  </diagram>
</mxfile>
